<svg width="200" height="52" viewBox="0 0 200 52" fill="none" xmlns="http://www.w3.org/2000/svg">
<path d="M72.248 17.32C74.024 17.32 75.576 17.664 76.904 18.352C78.248 19.024 79.28 20 80 21.28C80.736 22.544 81.104 24.024 81.104 25.72C81.104 27.416 80.736 28.888 80 30.136C79.28 31.384 78.248 32.344 76.904 33.016C75.576 33.672 74.024 34 72.248 34H66.8V17.32H72.248ZM72.248 31.768C74.2 31.768 75.696 31.24 76.736 30.184C77.776 29.128 78.296 27.64 78.296 25.72C78.296 23.784 77.776 22.272 76.736 21.184C75.696 20.096 74.2 19.552 72.248 19.552H69.536V31.768H72.248ZM86.5516 22.696C86.9516 22.024 87.4796 21.504 88.1356 21.136C88.8076 20.752 89.5996 20.56 90.5116 20.56V23.392H89.8156C88.7436 23.392 87.9276 23.664 87.3676 24.208C86.8236 24.752 86.5516 25.696 86.5516 27.04V34H83.8156V20.776H86.5516V22.696ZM98.7626 34.216C97.5146 34.216 96.3866 33.936 95.3786 33.376C94.3706 32.8 93.5786 32 93.0026 30.976C92.4266 29.936 92.1386 28.736 92.1386 27.376C92.1386 26.032 92.4346 24.84 93.0266 23.8C93.6186 22.76 94.4266 21.96 95.4506 21.4C96.4746 20.84 97.6186 20.56 98.8826 20.56C100.147 20.56 101.291 20.84 102.315 21.4C103.339 21.96 104.147 22.76 104.739 23.8C105.331 24.84 105.627 26.032 105.627 27.376C105.627 28.72 105.323 29.912 104.715 30.952C104.107 31.992 103.275 32.8 102.219 33.376C101.179 33.936 100.027 34.216 98.7626 34.216ZM98.7626 31.84C99.4666 31.84 100.123 31.672 100.731 31.336C101.355 31 101.859 30.496 102.243 29.824C102.627 29.152 102.819 28.336 102.819 27.376C102.819 26.416 102.635 25.608 102.267 24.952C101.899 24.28 101.411 23.776 100.803 23.44C100.195 23.104 99.5386 22.936 98.8346 22.936C98.1306 22.936 97.4746 23.104 96.8666 23.44C96.2746 23.776 95.8026 24.28 95.4506 24.952C95.0986 25.608 94.9226 26.416 94.9226 27.376C94.9226 28.8 95.2826 29.904 96.0026 30.688C96.7386 31.456 97.6586 31.84 98.7626 31.84ZM111.067 22.72C111.531 22.112 112.163 21.6 112.963 21.184C113.763 20.768 114.667 20.56 115.675 20.56C116.827 20.56 117.875 20.848 118.819 21.424C119.779 21.984 120.531 22.776 121.075 23.8C121.619 24.824 121.891 26 121.891 27.328C121.891 28.656 121.619 29.848 121.075 30.904C120.531 31.944 119.779 32.76 118.819 33.352C117.875 33.928 116.827 34.216 115.675 34.216C114.667 34.216 113.771 34.016 112.987 33.616C112.203 33.2 111.563 32.688 111.067 32.08V40.288H108.331V20.776H111.067V22.72ZM119.107 27.328C119.107 26.416 118.915 25.632 118.531 24.976C118.163 24.304 117.667 23.8 117.043 23.464C116.435 23.112 115.779 22.936 115.075 22.936C114.387 22.936 113.731 23.112 113.107 23.464C112.499 23.816 112.003 24.328 111.619 25C111.251 25.672 111.067 26.464 111.067 27.376C111.067 28.288 111.251 29.088 111.619 29.776C112.003 30.448 112.499 30.96 113.107 31.312C113.731 31.664 114.387 31.84 115.075 31.84C115.779 31.84 116.435 31.664 117.043 31.312C117.667 30.944 118.163 30.416 118.531 29.728C118.915 29.04 119.107 28.24 119.107 27.328ZM130.093 34.168C128.973 34.168 127.965 33.976 127.069 33.592C126.173 33.192 125.469 32.632 124.957 31.912C124.445 31.192 124.189 30.352 124.189 29.392H127.117C127.181 30.112 127.461 30.704 127.957 31.168C128.469 31.632 129.181 31.864 130.093 31.864C131.037 31.864 131.773 31.64 132.301 31.192C132.829 30.728 133.093 30.136 133.093 29.416C133.093 28.856 132.925 28.4 132.589 28.048C132.269 27.696 131.861 27.424 131.365 27.232C130.885 27.04 130.213 26.832 129.349 26.608C128.261 26.32 127.373 26.032 126.685 25.744C126.013 25.44 125.437 24.976 124.957 24.352C124.477 23.728 124.237 22.896 124.237 21.856C124.237 20.896 124.477 20.056 124.957 19.336C125.437 18.616 126.109 18.064 126.973 17.68C127.837 17.296 128.837 17.104 129.973 17.104C131.589 17.104 132.909 17.512 133.933 18.328C134.973 19.128 135.549 20.232 135.661 21.64H132.637C132.589 21.032 132.301 20.512 131.773 20.08C131.245 19.648 130.549 19.432 129.685 19.432C128.901 19.432 128.261 19.632 127.765 20.032C127.269 20.432 127.021 21.008 127.021 21.76C127.021 22.272 127.173 22.696 127.477 23.032C127.797 23.352 128.197 23.608 128.677 23.8C129.157 23.992 129.813 24.2 130.645 24.424C131.749 24.728 132.645 25.032 133.333 25.336C134.037 25.64 134.629 26.112 135.109 26.752C135.605 27.376 135.853 28.216 135.853 29.272C135.853 30.12 135.621 30.92 135.157 31.672C134.709 32.424 134.045 33.032 133.165 33.496C132.301 33.944 131.277 34.168 130.093 34.168ZM141.817 22.72C142.281 22.112 142.913 21.6 143.713 21.184C144.513 20.768 145.417 20.56 146.425 20.56C147.577 20.56 148.625 20.848 149.569 21.424C150.529 21.984 151.281 22.776 151.825 23.8C152.369 24.824 152.641 26 152.641 27.328C152.641 28.656 152.369 29.848 151.825 30.904C151.281 31.944 150.529 32.76 149.569 33.352C148.625 33.928 147.577 34.216 146.425 34.216C145.417 34.216 144.521 34.016 143.737 33.616C142.953 33.2 142.313 32.688 141.817 32.08V40.288H139.081V20.776H141.817V22.72ZM149.857 27.328C149.857 26.416 149.665 25.632 149.281 24.976C148.913 24.304 148.417 23.8 147.793 23.464C147.185 23.112 146.529 22.936 145.825 22.936C145.137 22.936 144.481 23.112 143.857 23.464C143.249 23.816 142.753 24.328 142.369 25C142.001 25.672 141.817 26.464 141.817 27.376C141.817 28.288 142.001 29.088 142.369 29.776C142.753 30.448 143.249 30.96 143.857 31.312C144.481 31.664 145.137 31.84 145.825 31.84C146.529 31.84 147.185 31.664 147.793 31.312C148.417 30.944 148.913 30.416 149.281 29.728C149.665 29.04 149.857 28.24 149.857 27.328ZM154.435 27.328C154.435 26 154.707 24.824 155.251 23.8C155.811 22.776 156.563 21.984 157.507 21.424C158.467 20.848 159.523 20.56 160.675 20.56C161.715 20.56 162.619 20.768 163.387 21.184C164.171 21.584 164.795 22.088 165.259 22.696V20.776H168.019V34H165.259V32.032C164.795 32.656 164.163 33.176 163.363 33.592C162.563 34.008 161.651 34.216 160.627 34.216C159.491 34.216 158.451 33.928 157.507 33.352C156.563 32.76 155.811 31.944 155.251 30.904C154.707 29.848 154.435 28.656 154.435 27.328ZM165.259 27.376C165.259 26.464 165.067 25.672 164.683 25C164.315 24.328 163.827 23.816 163.219 23.464C162.611 23.112 161.955 22.936 161.251 22.936C160.547 22.936 159.891 23.112 159.283 23.464C158.675 23.8 158.179 24.304 157.795 24.976C157.427 25.632 157.243 26.416 157.243 27.328C157.243 28.24 157.427 29.04 157.795 29.728C158.179 30.416 158.675 30.944 159.283 31.312C159.907 31.664 160.563 31.84 161.251 31.84C161.955 31.84 162.611 31.664 163.219 31.312C163.827 30.96 164.315 30.448 164.683 29.776C165.067 29.088 165.259 28.288 165.259 27.376ZM170.701 27.376C170.701 26.016 170.973 24.824 171.517 23.8C172.077 22.76 172.845 21.96 173.821 21.4C174.797 20.84 175.917 20.56 177.181 20.56C178.781 20.56 180.101 20.944 181.141 21.712C182.197 22.464 182.909 23.544 183.277 24.952H180.325C180.085 24.296 179.701 23.784 179.173 23.416C178.645 23.048 177.981 22.864 177.181 22.864C176.061 22.864 175.165 23.264 174.493 24.064C173.837 24.848 173.509 25.952 173.509 27.376C173.509 28.8 173.837 29.912 174.493 30.712C175.165 31.512 176.061 31.912 177.181 31.912C178.765 31.912 179.813 31.216 180.325 29.824H183.277C182.893 31.168 182.173 32.24 181.117 33.04C180.061 33.824 178.749 34.216 177.181 34.216C175.917 34.216 174.797 33.936 173.821 33.376C172.845 32.8 172.077 32 171.517 30.976C170.973 29.936 170.701 28.736 170.701 27.376ZM198.123 27.064C198.123 27.56 198.091 28.008 198.027 28.408H187.923C188.003 29.464 188.395 30.312 189.099 30.952C189.803 31.592 190.667 31.912 191.691 31.912C193.163 31.912 194.203 31.296 194.811 30.064H197.763C197.363 31.28 196.635 32.28 195.579 33.064C194.539 33.832 193.243 34.216 191.691 34.216C190.427 34.216 189.291 33.936 188.283 33.376C187.291 32.8 186.507 32 185.931 30.976C185.371 29.936 185.091 28.736 185.091 27.376C185.091 26.016 185.363 24.824 185.907 23.8C186.467 22.76 187.243 21.96 188.235 21.4C189.243 20.84 190.395 20.56 191.691 20.56C192.939 20.56 194.051 20.832 195.027 21.376C196.003 21.92 196.763 22.688 197.307 23.68C197.851 24.656 198.123 25.784 198.123 27.064ZM195.267 26.2C195.251 25.192 194.891 24.384 194.187 23.776C193.483 23.168 192.611 22.864 191.571 22.864C190.627 22.864 189.819 23.168 189.147 23.776C188.475 24.368 188.075 25.176 187.947 26.2H195.267Z" fill="#7288FA"/>
<rect opacity="0.2" width="48" height="48" rx="24" fill="#7288FA"/>
<rect x="21" y="20" width="32" height="32" rx="16" fill="#7288FA"/>
</svg>
