<svg width="311" height="82" viewBox="0 0 311 82" fill="none" xmlns="http://www.w3.org/2000/svg">
<path d="M112.635 27.4688C115.404 27.4688 117.823 28.0051 119.894 29.0777C121.989 30.1253 123.598 31.6469 124.721 33.6425C125.868 35.613 126.442 37.9204 126.442 40.5644C126.442 43.2085 125.868 45.5034 124.721 47.449C123.598 49.3947 121.989 50.8913 119.894 51.939C117.823 52.9617 115.404 53.473 112.635 53.473H104.142V27.4688H112.635ZM112.635 49.9933C115.678 49.9933 118.011 49.1702 119.632 47.5239C121.253 45.8775 122.064 43.5577 122.064 40.5644C122.064 37.5462 121.253 35.189 119.632 33.4928C118.011 31.7966 115.678 30.9485 112.635 30.9485H108.407V49.9933H112.635ZM134.935 35.85C135.558 34.8024 136.381 33.9917 137.404 33.418C138.452 32.8193 139.686 32.52 141.108 32.52V36.9351H140.023C138.352 36.9351 137.08 37.3591 136.207 38.2072C135.359 39.0553 134.935 40.527 134.935 42.6223V53.473H130.669V32.8567H134.935V35.85ZM153.971 53.8098C152.026 53.8098 150.267 53.3732 148.696 52.5002C147.124 51.6022 145.89 50.355 144.992 48.7586C144.094 47.1372 143.645 45.2664 143.645 43.1462C143.645 41.0509 144.106 39.1925 145.029 37.5712C145.952 35.9498 147.212 34.7026 148.808 33.8295C150.404 32.9565 152.188 32.52 154.159 32.52C156.129 32.52 157.913 32.9565 159.509 33.8295C161.106 34.7026 162.365 35.9498 163.288 37.5712C164.211 39.1925 164.673 41.0509 164.673 43.1462C164.673 45.2415 164.199 47.0998 163.251 48.7212C162.303 50.3425 161.006 51.6022 159.359 52.5002C157.738 53.3732 155.942 53.8098 153.971 53.8098ZM153.971 50.1056C155.069 50.1056 156.092 49.8437 157.04 49.3198C158.012 48.796 158.798 48.0103 159.397 46.9626C159.995 45.915 160.295 44.6428 160.295 43.1462C160.295 41.6495 160.008 40.3898 159.434 39.3671C158.861 38.3195 158.1 37.5337 157.152 37.0099C156.204 36.4861 155.181 36.2242 154.084 36.2242C152.986 36.2242 151.963 36.4861 151.016 37.0099C150.093 37.5337 149.357 38.3195 148.808 39.3671C148.259 40.3898 147.985 41.6495 147.985 43.1462C147.985 45.3662 148.546 47.0873 149.669 48.3096C150.816 49.5069 152.25 50.1056 153.971 50.1056ZM173.155 35.8874C173.878 34.9396 174.863 34.1413 176.11 33.4928C177.358 32.8443 178.767 32.52 180.338 32.52C182.134 32.52 183.768 32.969 185.24 33.867C186.737 34.74 187.909 35.9747 188.757 37.5712C189.605 39.1676 190.029 41.001 190.029 43.0713C190.029 45.1417 189.605 47 188.757 48.6463C187.909 50.2677 186.737 51.5399 185.24 52.4628C183.768 53.3608 182.134 53.8098 180.338 53.8098C178.767 53.8098 177.37 53.498 176.148 52.8744C174.926 52.2258 173.928 51.4276 173.155 50.4797V63.2761H168.889V32.8567H173.155V35.8874ZM185.689 43.0713C185.689 41.6495 185.39 40.4273 184.791 39.4045C184.217 38.3569 183.444 37.5712 182.471 37.0473C181.523 36.4986 180.501 36.2242 179.403 36.2242C178.33 36.2242 177.308 36.4986 176.335 37.0473C175.387 37.5961 174.614 38.3943 174.015 39.442C173.441 40.4896 173.155 41.7244 173.155 43.1462C173.155 44.568 173.441 45.8152 174.015 46.8878C174.614 47.9354 175.387 48.7336 176.335 49.2824C177.308 49.8312 178.33 50.1056 179.403 50.1056C180.501 50.1056 181.523 49.8312 182.471 49.2824C183.444 48.7087 184.217 47.8855 184.791 46.8129C185.39 45.7404 185.689 44.4931 185.689 43.0713ZM202.816 53.7349C201.07 53.7349 199.498 53.4356 198.101 52.8369C196.704 52.2133 195.607 51.3403 194.809 50.2178C194.01 49.0953 193.611 47.7858 193.611 46.2891H198.176C198.276 47.4116 198.712 48.3345 199.486 49.0579C200.284 49.7813 201.394 50.143 202.816 50.143C204.287 50.143 205.435 49.7938 206.258 49.0953C207.081 48.372 207.493 47.449 207.493 46.3265C207.493 45.4535 207.231 44.7426 206.707 44.1938C206.208 43.645 205.572 43.221 204.799 42.9217C204.05 42.6223 203.003 42.2981 201.656 41.9488C199.96 41.4999 198.575 41.0509 197.503 40.6019C196.455 40.1279 195.557 39.4046 194.809 38.4317C194.06 37.4589 193.686 36.1618 193.686 34.5404C193.686 33.0438 194.06 31.7342 194.809 30.6118C195.557 29.4893 196.605 28.6287 197.952 28.03C199.299 27.4314 200.858 27.1321 202.629 27.1321C205.148 27.1321 207.206 27.7681 208.802 29.0403C210.424 30.2875 211.322 32.0086 211.496 34.2037H206.782C206.707 33.2558 206.258 32.4451 205.435 31.7717C204.612 31.0982 203.527 30.7614 202.18 30.7614C200.957 30.7614 199.96 31.0732 199.186 31.6968C198.413 32.3204 198.026 33.2184 198.026 34.3908C198.026 35.189 198.263 35.85 198.737 36.3738C199.236 36.8727 199.86 37.2718 200.608 37.5712C201.356 37.8705 202.379 38.1948 203.676 38.544C205.397 39.0179 206.794 39.4919 207.867 39.9658C208.964 40.4397 209.887 41.1756 210.636 42.1733C211.409 43.1462 211.796 44.4557 211.796 46.102C211.796 47.4241 211.434 48.6713 210.71 49.8437C210.012 51.016 208.977 51.9639 207.605 52.6873C206.258 53.3857 204.662 53.7349 202.816 53.7349ZM221.094 35.8874C221.817 34.9396 222.803 34.1413 224.05 33.4928C225.297 32.8443 226.706 32.52 228.278 32.52C230.074 32.52 231.708 32.969 233.179 33.867C234.676 34.74 235.848 35.9747 236.697 37.5712C237.545 39.1676 237.969 41.001 237.969 43.0713C237.969 45.1417 237.545 47 236.697 48.6463C235.848 50.2677 234.676 51.5399 233.179 52.4628C231.708 53.3608 230.074 53.8098 228.278 53.8098C226.706 53.8098 225.31 53.498 224.087 52.8744C222.865 52.2258 221.867 51.4276 221.094 50.4797V63.2761H216.829V32.8567H221.094V35.8874ZM233.628 43.0713C233.628 41.6495 233.329 40.4273 232.73 39.4045C232.157 38.3569 231.383 37.5712 230.411 37.0473C229.463 36.4986 228.44 36.2242 227.343 36.2242C226.27 36.2242 225.247 36.4986 224.274 37.0473C223.327 37.5961 222.553 38.3943 221.955 39.442C221.381 40.4896 221.094 41.7244 221.094 43.1462C221.094 44.568 221.381 45.8152 221.955 46.8878C222.553 47.9354 223.327 48.7336 224.274 49.2824C225.247 49.8312 226.27 50.1056 227.343 50.1056C228.44 50.1056 229.463 49.8312 230.411 49.2824C231.383 48.7087 232.157 47.8855 232.73 46.8129C233.329 45.7404 233.628 44.4931 233.628 43.0713ZM240.765 43.0713C240.765 41.001 241.189 39.1676 242.037 37.5712C242.91 35.9747 244.083 34.74 245.554 33.867C247.051 32.969 248.697 32.52 250.493 32.52C252.115 32.52 253.524 32.8443 254.721 33.4928C255.943 34.1164 256.916 34.9021 257.64 35.85V32.8567H261.943V53.473H257.64V50.4049C256.916 51.3777 255.931 52.1884 254.684 52.8369C253.437 53.4855 252.015 53.8098 250.418 53.8098C248.647 53.8098 247.026 53.3608 245.554 52.4628C244.083 51.5399 242.91 50.2677 242.037 48.6463C241.189 47 240.765 45.1417 240.765 43.0713ZM257.64 43.1462C257.64 41.7244 257.34 40.4896 256.742 39.442C256.168 38.3943 255.407 37.5961 254.459 37.0473C253.511 36.4986 252.489 36.2242 251.391 36.2242C250.294 36.2242 249.271 36.4986 248.323 37.0473C247.375 37.5712 246.602 38.3569 246.003 39.4045C245.43 40.4273 245.143 41.6495 245.143 43.0713C245.143 44.4931 245.43 45.7404 246.003 46.8129C246.602 47.8855 247.375 48.7087 248.323 49.2824C249.296 49.8312 250.319 50.1056 251.391 50.1056C252.489 50.1056 253.511 49.8312 254.459 49.2824C255.407 48.7336 256.168 47.9354 256.742 46.8878C257.34 45.8152 257.64 44.568 257.64 43.1462ZM266.123 43.1462C266.123 41.0259 266.547 39.1676 267.395 37.5712C268.268 35.9498 269.466 34.7026 270.987 33.8295C272.509 32.9565 274.255 32.52 276.226 32.52C278.72 32.52 280.778 33.1186 282.399 34.316C284.046 35.4883 285.156 37.1721 285.729 39.3671H281.127C280.753 38.3444 280.154 37.5462 279.331 36.9725C278.508 36.3988 277.473 36.1119 276.226 36.1119C274.479 36.1119 273.083 36.7355 272.035 37.9827C271.012 39.205 270.501 40.9261 270.501 43.1462C270.501 45.3662 271.012 47.0998 272.035 48.347C273.083 49.5942 274.479 50.2178 276.226 50.2178C278.695 50.2178 280.329 49.1327 281.127 46.9626H285.729C285.131 49.0579 284.008 50.7292 282.362 51.9764C280.715 53.1986 278.67 53.8098 276.226 53.8098C274.255 53.8098 272.509 53.3732 270.987 52.5002C269.466 51.6022 268.268 50.355 267.395 48.7586C266.547 47.1372 266.123 45.2664 266.123 43.1462ZM308.875 42.6598C308.875 43.433 308.825 44.1315 308.726 44.7551H292.973C293.098 46.4014 293.709 47.7234 294.807 48.7212C295.904 49.7189 297.251 50.2178 298.848 50.2178C301.143 50.2178 302.764 49.2575 303.712 47.3368H308.314C307.69 49.2325 306.555 50.7915 304.909 52.0138C303.288 53.2111 301.267 53.8098 298.848 53.8098C296.877 53.8098 295.106 53.3732 293.535 52.5002C291.988 51.6022 290.766 50.355 289.868 48.7586C288.995 47.1372 288.558 45.2664 288.558 43.1462C288.558 41.0259 288.982 39.1676 289.83 37.5712C290.703 35.9498 291.913 34.7026 293.46 33.8295C295.031 32.9565 296.827 32.52 298.848 32.52C300.793 32.52 302.527 32.944 304.049 33.7921C305.57 34.6402 306.755 35.8375 307.603 37.3841C308.451 38.9057 308.875 40.6642 308.875 42.6598ZM304.423 41.3128C304.398 39.7413 303.837 38.4816 302.739 37.5337C301.641 36.5859 300.282 36.1119 298.661 36.1119C297.189 36.1119 295.929 36.5859 294.882 37.5337C293.834 38.4567 293.21 39.7164 293.011 41.3128H304.423Z" fill="white"/>
<rect opacity="0.2" width="74.8323" height="74.8323" rx="37.4161" fill="white"/>
<rect x="32.7393" y="31.1801" width="49.8882" height="49.8882" rx="24.9441" fill="white"/>
</svg>
